<mxfile host="drawio-plugin" modified="2024-05-02T20:10:00.758Z" agent="5.0 (Windows NT 10.0; Win64; x64) AppleWebKit/537.36 (KHTML, like Gecko) Chrome/111.0.0.0 Safari/537.36" version="20.5.3" etag="E_eIAcGjiUZf5wNKXC-L" type="embed"><diagram id="rbCkAGbpUvfF7MFPMHUp" name="Page-1"><mxGraphModel dx="735" dy="695" grid="1" gridSize="10" guides="1" tooltips="1" connect="1" arrows="1" fold="1" page="1" pageScale="1" pageWidth="2336" pageHeight="1654" math="0" shadow="0"><root><mxCell id="0"/><mxCell id="1" parent="0"/><mxCell id="2" value="&lt;div style=&quot;color: rgb(0, 0, 0); background-color: rgb(255, 255, 255); font-family: Consolas, &amp;quot;Courier New&amp;quot;, monospace; font-weight: normal; font-size: 14px; line-height: 19px;&quot;&gt;&lt;div&gt;&lt;span style=&quot;color: #800000;font-weight: bold;&quot;&gt;## НОД&lt;/span&gt;&lt;/div&gt;&lt;div&gt;&lt;span style=&quot;color: #000000;&quot;&gt;Напишите программу, которая принимает две строки вида “a/b” - дробь с числителем и знаменателем. Программа должна возвращать сумму и произведение* дробей. Для проверки своего кода используйте модуль fractions&lt;/span&gt;&lt;/div&gt;&lt;/div&gt;" style="text;whiteSpace=wrap;html=1;fillColor=none;fillStyle=auto;strokeColor=none;" parent="1" vertex="1"><mxGeometry x="150" y="20" width="560" height="140" as="geometry"/></mxCell><mxCell id="5" style="edgeStyle=none;html=1;exitX=0.5;exitY=1;exitDx=0;exitDy=0;entryX=0.5;entryY=0;entryDx=0;entryDy=0;" parent="1" source="3" target="4" edge="1"><mxGeometry relative="1" as="geometry"/></mxCell><mxCell id="3" value="Начало" style="rounded=1;whiteSpace=wrap;html=1;fillStyle=auto;fillColor=none;" parent="1" vertex="1"><mxGeometry x="350" y="190" width="120" height="60" as="geometry"/></mxCell><mxCell id="7" style="edgeStyle=none;html=1;entryX=0.5;entryY=0;entryDx=0;entryDy=0;" parent="1" source="4" edge="1" target="33"><mxGeometry relative="1" as="geometry"><mxPoint x="410" y="370" as="targetPoint"/></mxGeometry></mxCell><mxCell id="4" value="a, b" style="shape=parallelogram;perimeter=parallelogramPerimeter;whiteSpace=wrap;html=1;fixedSize=1;fillStyle=auto;fillColor=none;" parent="1" vertex="1"><mxGeometry x="350" y="280" width="120" height="60" as="geometry"/></mxCell><mxCell id="23" style="edgeStyle=none;shape=connector;rounded=1;html=1;entryX=0.5;entryY=0;entryDx=0;entryDy=0;labelBackgroundColor=none;labelBorderColor=none;strokeColor=default;fontFamily=Helvetica;fontSize=12;fontColor=default;endArrow=classic;exitX=0.5;exitY=1;exitDx=0;exitDy=0;" parent="1" source="36" target="20" edge="1"><mxGeometry relative="1" as="geometry"><mxPoint x="410" y="750" as="sourcePoint"/></mxGeometry></mxCell><mxCell id="12" value="+" style="edgeStyle=none;html=1;entryX=0.5;entryY=0;entryDx=0;entryDy=0;fontSize=14;labelBackgroundColor=none;exitX=0.5;exitY=1;exitDx=0;exitDy=0;" parent="1" source="33" target="11" edge="1"><mxGeometry y="-10" relative="1" as="geometry"><mxPoint as="offset"/><mxPoint x="410" y="450" as="sourcePoint"/></mxGeometry></mxCell><mxCell id="13" value="-" style="edgeStyle=none;html=1;fontSize=18;labelBorderColor=none;labelBackgroundColor=none;" parent="1" edge="1"><mxGeometry y="10" relative="1" as="geometry"><mxPoint as="offset"/><mxPoint x="450" y="410" as="sourcePoint"/><mxPoint x="510" y="410" as="targetPoint"/></mxGeometry></mxCell><mxCell id="15" value="+" style="edgeStyle=none;shape=connector;rounded=1;html=1;entryX=0.5;entryY=0;entryDx=0;entryDy=0;labelBackgroundColor=none;labelBorderColor=none;strokeColor=default;fontFamily=Helvetica;fontSize=14;fontColor=default;endArrow=classic;exitX=0.5;exitY=1;exitDx=0;exitDy=0;" parent="1" source="34" target="14" edge="1"><mxGeometry y="-10" relative="1" as="geometry"><mxPoint as="offset"/><mxPoint x="550" y="450" as="sourcePoint"/></mxGeometry></mxCell><mxCell id="19" value="-" style="edgeStyle=none;shape=connector;rounded=1;html=1;labelBackgroundColor=none;labelBorderColor=none;strokeColor=default;fontFamily=Helvetica;fontSize=17;fontColor=default;endArrow=classic;exitX=1;exitY=0.5;exitDx=0;exitDy=0;" parent="1" edge="1"><mxGeometry x="-0.3478" y="-10" relative="1" as="geometry"><Array as="points"><mxPoint x="660" y="410"/><mxPoint x="660" y="570"/></Array><mxPoint as="offset"/><mxPoint x="590" y="410" as="sourcePoint"/><mxPoint x="660" y="570" as="targetPoint"/></mxGeometry></mxCell><mxCell id="41" style="edgeStyle=none;rounded=0;orthogonalLoop=1;jettySize=auto;html=1;exitX=0.5;exitY=1;exitDx=0;exitDy=0;" edge="1" parent="1" source="11"><mxGeometry relative="1" as="geometry"><mxPoint x="410" y="570" as="targetPoint"/></mxGeometry></mxCell><mxCell id="11" value="НОД = b" style="shape=parallelogram;perimeter=parallelogramPerimeter;whiteSpace=wrap;html=1;fixedSize=1;" parent="1" vertex="1"><mxGeometry x="350" y="490" width="120" height="60" as="geometry"/></mxCell><mxCell id="43" style="edgeStyle=none;rounded=0;orthogonalLoop=1;jettySize=auto;html=1;" edge="1" parent="1" source="14"><mxGeometry relative="1" as="geometry"><mxPoint x="560" y="540" as="targetPoint"/></mxGeometry></mxCell><mxCell id="45" style="edgeStyle=none;rounded=0;orthogonalLoop=1;jettySize=auto;html=1;" edge="1" parent="1" source="14"><mxGeometry relative="1" as="geometry"><mxPoint x="560" y="570" as="targetPoint"/></mxGeometry></mxCell><mxCell id="14" value="НОД = a" style="shape=parallelogram;perimeter=parallelogramPerimeter;whiteSpace=wrap;html=1;fixedSize=1;" parent="1" vertex="1"><mxGeometry x="500" y="490" width="120" height="60" as="geometry"/></mxCell><mxCell id="22" style="edgeStyle=none;shape=connector;rounded=1;html=1;labelBackgroundColor=none;labelBorderColor=none;strokeColor=default;fontFamily=Helvetica;fontSize=12;fontColor=default;endArrow=classic;" parent="1" source="20" edge="1"><mxGeometry relative="1" as="geometry"><mxPoint x="410" y="790" as="targetPoint"/></mxGeometry></mxCell><mxCell id="48" style="edgeStyle=orthogonalEdgeStyle;rounded=0;orthogonalLoop=1;jettySize=auto;html=1;exitX=0.5;exitY=1;exitDx=0;exitDy=0;entryX=1;entryY=0.5;entryDx=0;entryDy=0;" edge="1" parent="1" source="20" target="36"><mxGeometry relative="1" as="geometry"><Array as="points"><mxPoint x="410" y="790"/><mxPoint x="520" y="790"/><mxPoint x="520" y="640"/></Array></mxGeometry></mxCell><mxCell id="20" value="&lt;div style=&quot;background-color: rgb(255, 255, 255); font-family: Consolas, &amp;quot;Courier New&amp;quot;, monospace; font-size: 14px; line-height: 19px;&quot;&gt;&lt;span style=&quot;color: #001080;&quot;&gt;q=a//b;&lt;/span&gt;&lt;/div&gt;&lt;div style=&quot;background-color: rgb(255, 255, 255); font-family: Consolas, &amp;quot;Courier New&amp;quot;, monospace; font-size: 14px; line-height: 19px;&quot;&gt;&lt;span style=&quot;color: #001080;&quot;&gt;a,b=b,a-q*b&lt;/span&gt;&lt;/div&gt;" style="rounded=0;whiteSpace=wrap;html=1;fontFamily=Helvetica;fontSize=12;fontColor=default;" parent="1" vertex="1"><mxGeometry x="350" y="710" width="120" height="60" as="geometry"/></mxCell><mxCell id="28" style="edgeStyle=none;shape=connector;rounded=1;html=1;entryX=0.5;entryY=0;entryDx=0;entryDy=0;labelBackgroundColor=none;labelBorderColor=none;strokeColor=default;fontFamily=Helvetica;fontSize=12;fontColor=default;endArrow=classic;" parent="1" source="24" target="27" edge="1"><mxGeometry relative="1" as="geometry"/></mxCell><mxCell id="24" value="НОД=a" style="rounded=0;whiteSpace=wrap;html=1;" parent="1" vertex="1"><mxGeometry x="350" y="860" width="120" height="40" as="geometry"/></mxCell><mxCell id="27" value="конец" style="ellipse;whiteSpace=wrap;html=1;fontFamily=Helvetica;fontSize=12;fontColor=default;" parent="1" vertex="1"><mxGeometry x="350" y="940" width="120" height="50" as="geometry"/></mxCell><mxCell id="33" value="a==0" style="shape=hexagon;perimeter=hexagonPerimeter2;whiteSpace=wrap;html=1;fixedSize=1;" vertex="1" parent="1"><mxGeometry x="360" y="380" width="100" height="60" as="geometry"/></mxCell><mxCell id="34" value="b==0" style="shape=hexagon;perimeter=hexagonPerimeter2;whiteSpace=wrap;html=1;fixedSize=1;" vertex="1" parent="1"><mxGeometry x="510" y="380" width="100" height="60" as="geometry"/></mxCell><mxCell id="52" style="edgeStyle=orthogonalEdgeStyle;rounded=0;orthogonalLoop=1;jettySize=auto;html=1;entryX=0;entryY=0.5;entryDx=0;entryDy=0;" edge="1" parent="1" source="36" target="24"><mxGeometry relative="1" as="geometry"><mxPoint x="310" y="850" as="targetPoint"/><Array as="points"><mxPoint x="290" y="640"/><mxPoint x="290" y="880"/></Array></mxGeometry></mxCell><mxCell id="36" value="b" style="shape=hexagon;perimeter=hexagonPerimeter2;whiteSpace=wrap;html=1;fixedSize=1;" vertex="1" parent="1"><mxGeometry x="360" y="610" width="100" height="60" as="geometry"/></mxCell><mxCell id="37" value="" style="endArrow=none;html=1;rounded=0;" edge="1" parent="1"><mxGeometry width="50" height="50" relative="1" as="geometry"><mxPoint x="410" y="570" as="sourcePoint"/><mxPoint x="670" y="570" as="targetPoint"/></mxGeometry></mxCell><mxCell id="47" value="" style="endArrow=classic;html=1;rounded=0;" edge="1" parent="1"><mxGeometry width="50" height="50" relative="1" as="geometry"><mxPoint x="410" y="570" as="sourcePoint"/><mxPoint x="410" y="610" as="targetPoint"/></mxGeometry></mxCell></root></mxGraphModel></diagram></mxfile>